<svg xmlns="http://www.w3.org/2000/svg" viewBox="150 8 100 115">
  <rect x="150" y="8" width="100" height="115" fill="#111111"/>
  <ellipse cx="168" cy="62" rx="22" ry="11" fill="#ffffff" opacity="0.7" transform="rotate(-20 168 62)"/>
  <ellipse cx="232" cy="62" rx="22" ry="11" fill="#ffffff" opacity="0.7" transform="rotate(20 232 62)"/>
  <ellipse cx="200" cy="75" rx="22" ry="28" fill="#f5c800"/>
  <rect x="178" y="68" width="44" height="7" fill="#111111" rx="2"/>
  <rect x="178" y="82" width="44" height="7" fill="#111111" rx="2"/>
  <circle cx="200" cy="42" r="16" fill="#f5c800"/>
  <circle cx="194" cy="39" r="4" fill="#111111"/>
  <circle cx="206" cy="39" r="4" fill="#111111"/>
  <circle cx="195" cy="38" r="1.5" fill="#ffffff"/>
  <circle cx="207" cy="38" r="1.5" fill="#ffffff"/>
  <path d="M194 48 Q200 53 206 48" fill="none" stroke="#111111" stroke-width="2" stroke-linecap="round"/>
  <line x1="194" y1="27" x2="183" y2="14" stroke="#f5c800" stroke-width="2" stroke-linecap="round"/>
  <line x1="206" y1="27" x2="217" y2="14" stroke="#f5c800" stroke-width="2" stroke-linecap="round"/>
  <circle cx="183" cy="13" r="3" fill="#f5c800"/>
  <circle cx="217" cy="13" r="3" fill="#f5c800"/>
  <polygon points="200,103 194,116 206,116" fill="#f5c800"/>
</svg>
